<svg width="558" height="388" viewBox="0 0 558 388" fill="none" xmlns="http://www.w3.org/2000/svg">
<path d="M274 254C275 259.333 267.4 275.5 259 285.5C248.5 298 215 352.5 201.5 355C188 357.5 175.5 400.5 141 383.5C106.5 366.5 122.5 349.5 102.5 346C82.5 342.5 71.5 295.5 87 289.5C102.5 283.5 103 327.5 57.5 308.5C21.1 293.3 62 238.167 87 212.5C115.333 207.833 180.4 217 168 205C155.6 193 90.3333 178.5 65 183.5C46.5 175.167 14.3 151.4 33.5 123C57.5 87.5 -20.5 32.5 6.49999 10.5C33.5 -11.5 169 -9 254.5 173C256.833 181 263.7 192.2 272.5 173C283.5 149 235 16 224.5 47C214 78 269.5 214.5 297.5 189.5C325.5 164.5 322.5 12.5 297.5 23C277.5 31.4 279.5 143.167 297.5 198C317 138.667 400.4 18.1 462 10.5C539 1 568 17 553.5 56C539 95 499 175 496.5 137.5C494 100 555.5 133.5 515 173C482.6 204.6 408.5 217.333 389 212.5C430.667 221.167 535.8 237.1 515 289.5C489 355 454 326.5 435 355C416 383.5 372.5 398 340 363.5C307.5 329 273 314.5 291 263.5C285.167 251.167 274 219.6 274 254Z" stroke="black" stroke-linecap="round"/>
</svg>
